<svg width="45" height="44" viewBox="0 0 45 44" fill="none" xmlns="http://www.w3.org/2000/svg">
<path d="M42.9619 34.1208L34.1599 42.3567C33.0322 43.4114 31.513 44 29.9207 44H6.73036C3.41522 44 0.726562 41.4738 0.726562 38.359V5.64103C0.726562 2.5262 3.41522 0 6.73036 0H38.7227C42.0379 0 44.7265 2.5262 44.7265 5.64103V30.1231C44.7318 31.6241 44.0948 33.0613 42.9619 34.1208Z" fill="white"/>
<rect x="20.1914" y="13.5996" width="4.23127" height="16.8" rx="2.11563" fill="url(#paint0_linear_100_945)"/>
<rect x="13.4219" y="24" width="4" height="17.7713" rx="2" transform="rotate(-90 13.4219 24)" fill="url(#paint1_linear_100_945)"/>
<defs>
<linearGradient id="paint0_linear_100_945" x1="19.2728" y1="4.67461" x2="29.2155" y2="6.45816" gradientUnits="userSpaceOnUse">
<stop stop-color="#D91C5C"/>
<stop offset="1" stop-color="#2B388F"/>
</linearGradient>
<linearGradient id="paint1_linear_100_945" x1="12.5535" y1="14.559" x2="22.0121" y2="16.0753" gradientUnits="userSpaceOnUse">
<stop stop-color="#D91C5C"/>
<stop offset="1" stop-color="#2B388F"/>
</linearGradient>
</defs>
</svg>
