<svg width="56" height="61" viewBox="0 0 56 61" fill="none" xmlns="http://www.w3.org/2000/svg">
<path d="M29.4004 47.2364L41.4775 53.5002C42.0084 53.7758 42.3409 54.3233 42.3409 54.9219V58.1572C42.3409 59.263 41.2469 60.0361 40.2057 59.6665L29.4844 55.8533C28.8462 55.626 28.4199 55.0221 28.4199 54.3439V47.8331C28.4208 47.3294 28.9535 47.0046 29.4004 47.2364Z" fill="#E5E5E5"/>
<path d="M27.4991 47.2364L15.4219 53.5002C14.8911 53.7758 14.5586 54.3233 14.5586 54.9219V58.1572C14.5586 59.263 15.6525 60.0361 16.6937 59.6665L27.4151 55.8533C28.0532 55.626 28.4795 55.0221 28.4795 54.3439V47.8331C28.4795 47.3294 27.946 47.0046 27.4991 47.2364Z" fill="#E5E5E5"/>
<path d="M46.4521 29.8658H44.1722C43.1614 29.8658 42.3418 29.0454 42.3418 28.0335V22.1937C42.3418 21.1818 43.1614 20.3613 44.1722 20.3613H46.4521C47.4629 20.3613 48.2825 21.1818 48.2825 22.1937V28.0335C48.2825 29.0454 47.4629 29.8658 46.4521 29.8658Z" fill="#E5E5E5"/>
<path d="M34.623 20.3613L54.6027 29.9812C57.0936 31.181 56.0416 34.2714 53.1423 34.2714H34.623V20.3613Z" fill="#E5E5E5"/>
<path d="M13.0146 29.8648H10.7347C9.72386 29.8648 8.9043 29.0444 8.9043 28.0325V22.1927C8.9043 21.1808 9.72386 20.3604 10.7347 20.3604H13.0146C14.0254 20.3604 14.845 21.1808 14.845 22.1927V28.0325C14.8441 29.0444 14.0254 29.8648 13.0146 29.8648Z" fill="#E5E5E5"/>
<path d="M22.2198 20.3604L2.24015 29.9803C-0.250709 31.1801 0.801228 34.2704 3.70053 34.2704H22.2198V20.3604Z" fill="#E5E5E5"/>
<path d="M28.4224 0.664876C28.4224 0.664876 21.1035 0.239889 21.1035 18.823C21.1035 35.6212 24.657 54.1551 27.534 59.8338C27.904 60.5639 28.9416 60.5639 29.3108 59.8338C32.1868 54.1551 35.7413 35.6212 35.7413 18.823C35.7413 0.239889 28.4224 0.664876 28.4224 0.664876Z" fill="white"/>
<path d="M32.3033 8.80106C32.3033 7.79399 31.9032 6.82817 31.1911 6.11607C30.479 5.40396 29.5132 5.00391 28.5061 5.00391C27.4991 5.00391 26.5333 5.40396 25.8211 6.11607C25.109 6.82817 24.709 7.79399 24.709 8.80106L28.5061 8.80106H32.3033Z" fill="url(#paint0_linear_100_918)"/>
<defs>
<linearGradient id="paint0_linear_100_918" x1="23.0602" y1="0.969429" x2="35.2806" y2="9.67317" gradientUnits="userSpaceOnUse">
<stop stop-color="#D91C5C"/>
<stop offset="1" stop-color="#2B388F"/>
</linearGradient>
</defs>
</svg>
