<svg width="43" height="45" viewBox="0 0 43 45" fill="none" xmlns="http://www.w3.org/2000/svg">
<path d="M36.5748 31.7379L29.3379 38.9527C28.4107 39.8765 27.1617 40.3922 25.8525 40.3922H6.78583C4.06018 40.3922 1.84961 38.1792 1.84961 35.4506V6.78926C1.84961 4.06064 4.06018 1.84766 6.78583 1.84766H33.0894C35.8151 1.84766 38.0256 4.06064 38.0256 6.78926V28.2358C38.0299 29.5507 37.5063 30.8098 36.5748 31.7379Z" stroke="white" stroke-width="2.08362" stroke-miterlimit="10"/>
<path d="M40.9612 36.3493L33.7242 43.564C32.7971 44.4879 31.548 45.0035 30.2388 45.0035H11.1765C8.4508 45.0035 6.24023 42.7905 6.24023 40.0619V11.4006C6.24023 8.67197 8.4508 6.45898 11.1765 6.45898H37.48C40.2057 6.45898 42.4163 8.67197 42.4163 11.4006V32.8472C42.4163 34.1621 41.8926 35.4211 40.9612 36.3493Z" fill="white"/>
<path d="M13.2891 18.1408C13.2891 17.6046 13.7238 17.1699 14.26 17.1699H34.9728C35.509 17.1699 35.9437 17.6046 35.9437 18.1408C35.9437 18.6771 35.509 19.1117 34.9728 19.1117H14.26C13.7238 19.1117 13.2891 18.6771 13.2891 18.1408Z" fill="#E0E0E0"/>
<path d="M13.2891 22.6731C13.2891 22.1368 13.7238 21.7021 14.26 21.7021H34.9728C35.509 21.7021 35.9437 22.1368 35.9437 22.6731C35.9437 23.2093 35.509 23.644 34.9728 23.644H14.26C13.7238 23.644 13.2891 23.2093 13.2891 22.6731Z" fill="#E0E0E0"/>
<path d="M13.2891 27.2024C13.2891 26.6661 13.7238 26.2314 14.26 26.2314H34.9728C35.509 26.2314 35.9437 26.6661 35.9437 27.2024C35.9437 27.7386 35.509 28.1733 34.9728 28.1733H14.26C13.7238 28.1733 13.2891 27.7386 13.2891 27.2024Z" fill="#E0E0E0"/>
<path d="M13.2891 31.7346C13.2891 31.1984 13.7238 30.7637 14.26 30.7637H24.6164C25.1526 30.7637 25.5873 31.1984 25.5873 31.7346C25.5873 32.2708 25.1526 32.7055 24.6164 32.7055H14.26C13.7238 32.7055 13.2891 32.2708 13.2891 31.7346Z" fill="#E0E0E0"/>
</svg>
