<svg width="40" height="56" viewBox="0 0 40 56" fill="none" xmlns="http://www.w3.org/2000/svg">
<path d="M24.2969 34.3857C31.1778 34.3857 36.7558 28.8076 36.7558 21.9267C36.7558 15.0458 31.1778 9.46777 24.2969 9.46777C17.416 9.46777 11.8379 15.0458 11.8379 21.9267C11.8379 28.8076 17.416 34.3857 24.2969 34.3857Z" fill="#EEEEEE"/>
<path d="M38.2103 18.6253C38.2103 20.3678 34.7886 21.5427 34.2785 23.1136C33.7507 24.7417 35.809 27.7031 34.8238 29.0584C33.8299 30.4269 30.3687 29.3796 29.0009 30.3741C27.6464 31.3598 27.5804 34.9812 25.9531 35.5092C24.3831 36.0197 22.2105 33.1463 20.4689 33.1463C18.7273 33.1463 16.5547 36.0197 14.9846 35.5092C13.3574 34.9812 13.2914 31.3598 11.9369 30.3741C10.5691 29.3796 7.1079 30.4269 6.11397 29.0584C5.12882 27.7031 7.18707 24.7417 6.65931 23.1136C6.14915 21.5427 2.72754 20.3634 2.72754 18.6253C2.72754 16.8872 6.14915 15.7079 6.65931 14.137C7.18707 12.5089 5.12882 9.54753 6.11397 8.19225C7.1079 6.82376 10.5691 7.87102 11.9369 6.87656C13.2914 5.89089 13.3574 2.26946 14.9846 1.74142C16.5547 1.23099 18.7273 4.10438 20.4689 4.10438C22.2105 4.10438 24.3831 1.23099 25.9531 1.74142C27.5804 2.26946 27.6464 5.89089 29.0009 6.87656C30.3687 7.87102 33.8299 6.82376 34.8238 8.19225C35.809 9.54753 33.7507 12.5089 34.2785 14.137C34.7842 15.7035 38.2103 16.8828 38.2103 18.6253Z" stroke="#D91C5C" stroke-width="2.08362" stroke-miterlimit="10"/>
<path d="M20.1914 36.2522L27.6284 53.2505C28.1253 54.3857 29.6646 54.5134 30.0472 53.4529L31.2743 49.3738C31.5117 48.7094 32.277 48.4498 32.9631 48.8018L36.9696 51.0679C38.0647 51.6268 39.1026 50.6367 38.61 49.5058L29.9681 29.7529" stroke="url(#paint0_linear_100_2781)" stroke-width="2.08362" stroke-miterlimit="10"/>
<path d="M21.4322 33.4184L12.755 53.2505C12.2581 54.3857 10.7188 54.5134 10.3362 53.4529L9.10914 49.3738C8.87165 48.7094 8.1064 48.4498 7.42032 48.8018L3.41378 51.0679C2.31869 51.6268 1.28077 50.6367 1.77335 49.5058L10.4197 29.7529" stroke="url(#paint1_linear_100_2781)" stroke-width="2.08362" stroke-miterlimit="10"/>
<defs>
<linearGradient id="paint0_linear_100_2781" x1="29.4637" y1="29.7529" x2="29.4637" y2="54.1797" gradientUnits="userSpaceOnUse">
<stop stop-color="#D91C5C"/>
<stop offset="1" stop-color="#2B388F"/>
</linearGradient>
<linearGradient id="paint1_linear_100_2781" x1="11.5398" y1="29.7529" x2="11.5398" y2="54.1797" gradientUnits="userSpaceOnUse">
<stop stop-color="#D91C5C"/>
<stop offset="1" stop-color="#2B388F"/>
</linearGradient>
</defs>
</svg>
