<svg width="43" height="45" viewBox="0 0 43 45" fill="none" xmlns="http://www.w3.org/2000/svg">
<path d="M36.5738 31.7379L29.3369 38.9527C28.4098 39.8765 27.1607 40.3922 25.8515 40.3922H6.78485C4.0592 40.3922 1.84863 38.1792 1.84863 35.4506V6.78926C1.84863 4.06064 4.0592 1.84766 6.78485 1.84766H33.0884C35.8141 1.84766 38.0247 4.06064 38.0247 6.78926V28.2358C38.0289 29.5507 37.5053 30.8098 36.5738 31.7379Z" stroke="url(#paint0_linear_100_2794)" stroke-width="2" stroke-miterlimit="10"/>
<path d="M40.2543 35.6409L40.2542 35.6411L33.0174 42.8557C33.0173 42.8557 33.0173 42.8558 33.0172 42.8558C32.2777 43.5926 31.2826 44.0035 30.2379 44.0035H11.1755C9.00314 44.0035 7.23926 42.2393 7.23926 40.0619V11.4006C7.23926 9.22322 9.00314 7.45898 11.1755 7.45898H37.4791C39.6514 7.45898 41.4153 9.22322 41.4153 11.4006V32.8472C41.4153 33.8958 40.9978 34.9001 40.2543 35.6409Z" fill="white" stroke="url(#paint1_linear_100_2794)" stroke-width="2"/>
<path d="M13.2891 18.1408C13.2891 17.6046 13.7238 17.1699 14.26 17.1699H34.9728C35.509 17.1699 35.9437 17.6046 35.9437 18.1408C35.9437 18.6771 35.509 19.1117 34.9728 19.1117H14.26C13.7238 19.1117 13.2891 18.6771 13.2891 18.1408Z" fill="#D91C5C"/>
<path d="M13.2891 22.6731C13.2891 22.1368 13.7238 21.7021 14.26 21.7021H34.9728C35.509 21.7021 35.9437 22.1368 35.9437 22.6731C35.9437 23.2093 35.509 23.644 34.9728 23.644H14.26C13.7238 23.644 13.2891 23.2093 13.2891 22.6731Z" fill="#D91C5C"/>
<path d="M13.2891 27.2024C13.2891 26.6661 13.7238 26.2314 14.26 26.2314H34.9728C35.509 26.2314 35.9437 26.6661 35.9437 27.2024C35.9437 27.7386 35.509 28.1733 34.9728 28.1733H14.26C13.7238 28.1733 13.2891 27.7386 13.2891 27.2024Z" fill="#D91C5C"/>
<path d="M13.2891 31.7346C13.2891 31.1984 13.7238 30.7637 14.26 30.7637H24.6164C25.1526 30.7637 25.5873 31.1984 25.5873 31.7346C25.5873 32.2708 25.1526 32.7055 24.6164 32.7055H14.26C13.7238 32.7055 13.2891 32.2708 13.2891 31.7346Z" fill="#D91C5C"/>
<defs>
<linearGradient id="paint0_linear_100_2794" x1="19.9367" y1="1.84766" x2="19.9367" y2="40.3922" gradientUnits="userSpaceOnUse">
<stop stop-color="#D91C5C"/>
<stop offset="1" stop-color="#2B388F"/>
</linearGradient>
<linearGradient id="paint1_linear_100_2794" x1="24.3273" y1="6.45898" x2="24.3273" y2="45.0035" gradientUnits="userSpaceOnUse">
<stop stop-color="#D91C5C"/>
<stop offset="1" stop-color="#2B388F"/>
</linearGradient>
</defs>
</svg>
