<svg width="44" height="62" viewBox="0 0 44 62" fill="none" xmlns="http://www.w3.org/2000/svg">
<path d="M42.92 22.7542C42.92 10.5955 32.7487 0.838037 20.5408 1.69835C10.2886 2.41709 1.9651 10.7806 1.20548 21.1425C0.537444 30.2683 5.60698 38.2725 13.1493 41.8607C14.2807 42.3998 15.0026 43.5487 15.0026 44.8119V49.8159V53.5947C15.0026 57.2429 17.6478 60.4445 21.2358 60.8475C25.4757 61.3212 29.0691 57.978 29.0691 53.7853V44.8119C29.0691 43.5487 29.7964 42.3998 30.9277 41.8607C38.0121 38.4794 42.92 31.1994 42.92 22.7542Z" stroke="white" stroke-width="2.08362" stroke-miterlimit="10"/>
<path d="M29.0645 49.5273H14.998" stroke="white" stroke-width="2.08362" stroke-miterlimit="10"/>
<path d="M22.0317 24.1094C17.9427 24.1094 14.6133 27.4744 14.6133 31.6072V35.974C16.7844 37.2809 19.3219 38.0377 22.0317 38.0377C24.7416 38.0377 27.279 37.2863 29.4502 35.974V31.6072C29.4502 27.4744 26.1207 24.1094 22.0317 24.1094Z" fill="white"/>
<path d="M10.9557 31.6083C10.9557 25.4337 15.9229 20.4134 22.0322 20.4134C28.1415 20.4134 33.1087 25.4337 33.1087 31.6083V32.8443C35.2528 30.2852 36.5458 26.9801 36.5458 23.37C36.5458 15.2679 30.0486 8.70117 22.0322 8.70117C14.0157 8.70117 7.51855 15.2679 7.51855 23.37C7.51855 26.9855 8.81153 30.2906 10.9557 32.8443V31.6083Z" fill="white"/>
</svg>
