<svg width="51" height="56" viewBox="0 0 51 56" fill="none" xmlns="http://www.w3.org/2000/svg">
<path d="M45.8274 54.7935C48.3966 54.7935 50.2698 52.3856 49.6597 49.8969C47.4576 40.9301 39.3353 34.2715 29.6544 34.2715C19.9736 34.2715 11.8466 40.9301 9.64918 49.9017C9.03906 52.3903 10.9123 54.7935 13.4815 54.7935H45.8274Z" stroke="white" stroke-width="2.08362" stroke-miterlimit="10"/>
<path d="M29.6527 29.7873C35.8153 29.7873 40.8112 24.8095 40.8112 18.6691C40.8112 12.5286 35.8153 7.55078 29.6527 7.55078C23.49 7.55078 18.4941 12.5286 18.4941 18.6691C18.4941 24.8095 23.49 29.7873 29.6527 29.7873Z" stroke="white" stroke-width="2.08362" stroke-miterlimit="10"/>
<path d="M6.02849 48.3343C7.86838 40.8398 12.6063 34.9554 20.924 32.2197C11.5529 32.5332 2.94929 38.4936 0.79957 47.2467C0.18945 49.7354 2.06271 52.1386 4.63189 52.1386H6.71964C5.99512 51.0747 5.69006 49.7164 6.02849 48.3343Z" fill="white"/>
<path d="M15.1508 16.4562C15.1508 9.57907 20.7468 4.00331 27.6487 4.00331C30.0892 4.00331 32.3676 4.70147 34.2886 5.90781C32.1674 2.73998 28.5449 0.645508 24.4313 0.645508C17.9011 0.645508 12.6055 5.92206 12.6055 12.4334C12.6055 15.5633 13.8352 18.4082 15.8324 20.5216C15.3939 19.244 15.1508 17.881 15.1508 16.4562Z" fill="white"/>
</svg>
